<svg width="757" height="757" viewBox="0 0 757 757" fill="none" xmlns="http://www.w3.org/2000/svg">
<path opacity="0.43" d="M616.176 531.082H148.405L323.25 152.669H441.331L616.176 531.082Z" fill="url(#paint0_linear_218:31062)"/>
<path d="M138.202 428.292C137.752 428.292 137.307 428.192 136.9 427.998C136.493 427.805 136.134 427.523 135.85 427.173C135.566 426.823 135.363 426.415 135.257 425.977C135.151 425.539 135.144 425.082 135.236 424.641L141.165 396.386C141.284 395.818 141.564 395.297 141.97 394.883C142.377 394.47 142.894 394.182 143.459 394.054L174.623 386.989C175.011 386.901 175.412 386.89 175.804 386.958C176.196 387.025 176.571 387.169 176.908 387.381C177.244 387.593 177.535 387.869 177.765 388.194C177.995 388.519 178.158 388.885 178.246 389.273C178.334 389.661 178.344 390.062 178.277 390.454C178.21 390.846 178.066 391.221 177.854 391.558C177.642 391.894 177.366 392.185 177.041 392.415C176.716 392.645 176.349 392.808 175.962 392.896L146.692 399.532L141.162 425.885C141.02 426.565 140.648 427.175 140.109 427.613C139.57 428.051 138.897 428.291 138.202 428.292Z" fill="#283035"/>
<path d="M235.2 329.941H490.898C498.052 329.941 503.852 335.741 503.852 342.895V511.621H222.248V342.894C222.249 335.742 228.047 329.942 235.2 329.941Z" fill="#D2DCE6"/>
<path d="M503.852 513.892H222.248C221.646 513.892 221.068 513.653 220.643 513.227C220.217 512.801 219.977 512.224 219.977 511.621V342.894C219.978 334.502 226.807 327.672 235.2 327.67H490.898C499.293 327.67 506.123 334.499 506.123 342.895V511.621C506.123 511.92 506.064 512.215 505.95 512.491C505.836 512.766 505.669 513.017 505.458 513.227C505.247 513.438 504.997 513.606 504.722 513.72C504.446 513.834 504.151 513.893 503.852 513.892ZM224.519 509.35H501.581V342.895C501.581 337.004 496.789 332.212 490.899 332.212H235.2C229.311 332.212 224.519 337.006 224.519 342.894V509.35H224.519Z" fill="#283035"/>
<path d="M243.444 351.351H482.656V490.639H243.444V351.351Z" fill="#FF5C5C"/>
<path opacity="0.3" d="M421.654 470.688H382.29C381.688 470.688 381.11 470.449 380.684 470.023C380.259 469.597 380.019 469.02 380.019 468.417C380.019 467.815 380.259 467.237 380.684 466.811C381.11 466.385 381.688 466.146 382.29 466.146H421.654C422.257 466.146 422.834 466.385 423.26 466.811C423.686 467.237 423.925 467.815 423.925 468.417C423.925 469.02 423.686 469.597 423.26 470.023C422.834 470.449 422.257 470.688 421.654 470.688Z" fill="white"/>
<g opacity="0.3">
<path opacity="0.3" d="M478.257 425.12C479.015 425.072 479.767 425.281 480.391 425.713C481.015 426.144 481.476 426.774 481.7 427.499V418.828C480.868 418.585 480.007 418.459 479.141 418.455H478.257C476.353 418.455 475.4 419.408 475.401 421.311V422.33C475.401 424.168 476.353 425.12 478.257 425.12ZM481.7 466.686C481.472 467.408 481.01 468.032 480.386 468.461C479.762 468.889 479.013 469.095 478.257 469.048C476.353 469.048 475.4 469.999 475.401 471.903V472.924C475.401 474.828 476.354 475.779 478.257 475.78H479.141C480.007 475.776 480.868 475.651 481.7 475.407V466.686Z" fill="white"/>
</g>
<path d="M482.656 492.91H243.444C242.842 492.91 242.264 492.671 241.838 492.245C241.413 491.819 241.173 491.241 241.173 490.639V351.351C241.173 350.749 241.413 350.171 241.838 349.745C242.264 349.319 242.842 349.08 243.444 349.08H482.656C483.259 349.08 483.836 349.319 484.262 349.745C484.688 350.171 484.927 350.749 484.927 351.351V490.639C484.927 491.241 484.688 491.819 484.262 492.245C483.836 492.671 483.259 492.91 482.656 492.91ZM245.715 488.368H480.385V353.622H245.715V488.368Z" fill="#283035"/>
<path d="M191.175 511.732H534.929C535.732 511.732 536.502 512.051 537.07 512.619C537.638 513.187 537.957 513.957 537.957 514.76V518.387C537.957 526.749 531.179 533.527 522.817 533.527H203.287C194.925 533.527 188.147 526.749 188.147 518.387V514.76C188.147 513.957 188.466 513.187 189.034 512.619C189.602 512.051 190.372 511.732 191.175 511.732Z" fill="#E5E5E5"/>
<path d="M522.814 526.711H203.284C195.78 526.705 189.414 521.201 188.325 513.776C188.211 514.092 188.151 514.424 188.147 514.76V518.387C188.147 526.749 194.925 533.527 203.287 533.527H522.817C531.179 533.527 537.957 526.749 537.957 518.387V514.76C537.953 514.424 537.893 514.092 537.779 513.776C536.69 521.203 530.32 526.708 522.814 526.711Z" fill="#CFD1D0"/>
<path d="M522.817 535.798H203.287C193.687 535.798 185.876 527.988 185.876 518.387V514.76C185.876 511.839 188.253 509.461 191.175 509.461H534.929C537.85 509.461 540.228 511.839 540.228 514.76V518.387C540.228 527.988 532.417 535.798 522.817 535.798ZM191.175 514.003C190.758 514.003 190.418 514.342 190.418 514.76V518.387C190.418 525.483 196.191 531.256 203.287 531.256H522.817C529.913 531.256 535.686 525.483 535.686 518.387V514.76C535.686 514.559 535.606 514.367 535.464 514.225C535.322 514.083 535.13 514.003 534.929 514.003H191.175Z" fill="#283035"/>
<path d="M331.256 511.621H394.844C394.844 513.227 394.206 514.767 393.071 515.903C391.935 517.039 390.395 517.677 388.788 517.677H337.312C335.706 517.677 334.166 517.039 333.03 515.903C331.894 514.767 331.256 513.227 331.256 511.621Z" fill="#686B6D"/>
<path d="M388.788 519.191H337.312C333.138 519.191 329.742 515.796 329.742 511.621C329.742 511.22 329.902 510.835 330.186 510.551C330.47 510.267 330.855 510.107 331.256 510.107H394.844C395.246 510.107 395.631 510.267 395.915 510.551C396.199 510.835 396.358 511.22 396.358 511.621C396.358 515.795 392.962 519.191 388.788 519.191ZM333.03 513.135C333.344 514.02 333.924 514.786 334.691 515.329C335.458 515.871 336.373 516.162 337.312 516.163H388.788C389.727 516.162 390.643 515.871 391.41 515.329C392.177 514.786 392.757 514.02 393.071 513.135H333.03Z" fill="#283035"/>
<path d="M362.455 346.418C365.799 346.418 368.511 343.706 368.511 340.362C368.511 337.017 365.799 334.306 362.455 334.306C359.11 334.306 356.399 337.017 356.399 340.362C356.399 343.706 359.11 346.418 362.455 346.418Z" fill="#686B6D"/>
<path d="M362.455 347.931C358.281 347.931 354.885 344.536 354.885 340.361C354.885 336.187 358.281 332.792 362.455 332.792C366.629 332.792 370.025 336.187 370.025 340.361C370.025 344.536 366.629 347.931 362.455 347.931ZM362.455 335.82C359.95 335.82 357.913 337.857 357.913 340.361C357.913 342.866 359.95 344.903 362.455 344.903C364.96 344.903 366.997 342.866 366.997 340.361C366.997 337.857 364.96 335.82 362.455 335.82Z" fill="#283035"/>
<path d="M116.165 533.524H153.334C154.623 533.524 155.869 533.054 156.836 532.202C157.804 531.349 158.428 530.174 158.591 528.895L168.519 450.999H100.984L110.913 528.895C111.076 530.173 111.699 531.348 112.666 532.2C113.632 533.052 114.877 533.523 116.165 533.524Z" fill="#EAD57D"/>
<path d="M111.315 451.001L119.193 522.942C119.355 524.422 120.057 525.79 121.166 526.783C122.274 527.777 123.711 528.327 125.199 528.327H158.667L158.595 528.895C158.432 530.174 157.808 531.35 156.841 532.202C155.873 533.054 154.628 533.524 153.339 533.524H116.17C114.881 533.524 113.636 533.053 112.668 532.201C111.701 531.349 111.077 530.174 110.914 528.895L100.984 451.001H111.315Z" fill="#E5C66E"/>
<path d="M153.334 535.795H116.164C112.366 535.792 109.14 532.948 108.66 529.182L98.731 451.286C98.6902 450.966 98.7181 450.642 98.8127 450.333C98.9072 450.025 99.0664 449.74 99.2795 449.498C99.4926 449.256 99.7549 449.063 100.049 448.93C100.343 448.797 100.661 448.728 100.984 448.728H168.519C168.841 448.729 169.16 448.798 169.453 448.931C169.747 449.064 170.009 449.258 170.222 449.499C170.435 449.741 170.594 450.026 170.689 450.334C170.784 450.642 170.812 450.967 170.772 451.286L160.844 529.182C160.364 532.952 157.135 535.795 153.334 535.795ZM116.168 531.253H153.335C154.071 531.252 154.782 530.982 155.335 530.496C155.887 530.009 156.244 529.338 156.339 528.608L165.94 453.27H103.564L113.167 528.608C113.261 529.338 113.618 530.008 114.17 530.495C114.722 530.982 115.432 531.251 116.168 531.253Z" fill="#283035"/>
<path d="M165.972 511.099L170.774 473.426H98.7279L103.53 511.099H165.972Z" fill="#5CBF84"/>
<path d="M165.972 511.099L170.774 473.426H98.7279L103.53 511.099H165.972Z" fill="#4FB277"/>
<path d="M165.674 506.746L169.701 473.426H109.286L112.995 504.102C113.083 504.831 113.436 505.503 113.985 505.99C114.535 506.477 115.244 506.746 115.979 506.746H165.674Z" fill="#5CBF84"/>
<path d="M165.972 513.37H103.53C102.977 513.37 102.443 513.169 102.029 512.803C101.614 512.438 101.347 511.934 101.277 511.386L96.4751 473.712C96.4344 473.392 96.4622 473.067 96.5568 472.759C96.6514 472.45 96.8105 472.166 97.0237 471.924C97.2368 471.682 97.499 471.488 97.7929 471.355C98.0867 471.222 98.4055 471.154 98.7279 471.154H170.774C171.096 471.154 171.415 471.223 171.708 471.356C172.002 471.489 172.264 471.683 172.477 471.925C172.69 472.167 172.849 472.451 172.944 472.759C173.039 473.067 173.067 473.392 173.027 473.712L168.225 511.386C168.155 511.934 167.888 512.438 167.473 512.803C167.059 513.169 166.525 513.37 165.972 513.37ZM105.53 508.828H163.972L168.195 475.696H101.307L105.53 508.828Z" fill="#283035"/>
<path d="M172.858 451H96.6446C92.0459 451 88.3176 447.272 88.3176 442.673C88.3176 438.074 92.0459 434.346 96.6446 434.346H172.858C177.457 434.346 181.185 438.074 181.185 442.673C181.185 447.272 177.457 451 172.858 451Z" fill="#5CBF84"/>
<path d="M172.858 451H96.6446C92.0459 451 88.3176 447.272 88.3176 442.673C88.3176 438.074 92.0459 434.346 96.6446 434.346H172.858C177.457 434.346 181.185 438.074 181.185 442.673C181.185 447.272 177.457 451 172.858 451Z" fill="#4FB277"/>
<path d="M174.655 447.404H105.256C103.542 447.378 101.906 446.679 100.703 445.457C99.5002 444.236 98.8258 442.59 98.8258 440.875C98.8258 439.161 99.5002 437.515 100.703 436.293C101.906 435.072 103.542 434.372 105.256 434.346H174.655C176.369 434.372 178.005 435.072 179.208 436.293C180.411 437.515 181.085 439.161 181.085 440.875C181.085 442.59 180.411 444.236 179.208 445.457C178.005 446.679 176.369 447.378 174.655 447.404Z" fill="#5CBF84"/>
<path d="M172.858 453.271H96.6446C90.8006 453.271 86.0466 448.517 86.0466 442.673C86.0466 436.829 90.8006 432.075 96.6446 432.075H172.858C178.702 432.075 183.456 436.829 183.456 442.673C183.456 448.517 178.702 453.271 172.858 453.271ZM96.6446 436.617C93.3055 436.617 90.5886 439.334 90.5886 442.673C90.5886 446.012 93.3055 448.729 96.6446 448.729H172.858C176.197 448.729 178.914 446.012 178.914 442.673C178.914 439.334 176.197 436.617 172.858 436.617H96.6446Z" fill="#283035"/>
<path d="M104.47 434.347H165.03L163.832 425.263H105.67L104.47 434.347Z" fill="#5CBF84"/>
<path d="M105.67 425.263H123.438L119.232 434.347H104.47L105.67 425.263Z" fill="#54AF79"/>
<path d="M165.031 436.618H104.471C103.817 436.618 103.194 436.336 102.763 435.844C102.331 435.353 102.133 434.698 102.219 434.05L103.418 424.966C103.491 424.42 103.759 423.919 104.173 423.556C104.587 423.193 105.119 422.993 105.67 422.993H163.832C164.383 422.993 164.915 423.193 165.329 423.556C165.743 423.919 166.011 424.42 166.084 424.966L167.282 434.05C167.324 434.371 167.297 434.696 167.203 435.006C167.109 435.315 166.95 435.601 166.737 435.844C166.524 436.087 166.262 436.281 165.968 436.415C165.673 436.548 165.354 436.618 165.031 436.618ZM107.061 432.076H162.44L161.841 427.534H107.661L107.061 432.076Z" fill="#283035"/>
<path d="M545.898 533.599C545.97 521.479 555.852 511.712 567.972 511.782C579.992 511.852 589.718 521.579 589.789 533.599H545.898Z" fill="#E5E5E5"/>
<path d="M567.844 526.667C574.194 526.727 580.259 524.04 584.48 519.297C576.59 510.109 562.746 509.056 553.558 516.946C552.716 517.669 551.93 518.455 551.207 519.297C553.294 521.641 555.858 523.512 558.727 524.783C561.597 526.054 564.705 526.697 567.844 526.667Z" fill="#CFD1D0"/>
<path d="M589.789 535.87H545.898C545.599 535.87 545.303 535.811 545.026 535.696C544.75 535.581 544.499 535.412 544.288 535.2C544.077 534.987 543.91 534.735 543.796 534.458C543.683 534.181 543.626 533.884 543.627 533.585C543.705 520.281 554.555 509.51 567.841 509.51L567.985 509.511C581.181 509.588 591.982 520.388 592.06 533.585C592.061 533.884 592.004 534.181 591.89 534.458C591.777 534.735 591.61 534.987 591.399 535.199C591.188 535.412 590.937 535.58 590.661 535.695C590.384 535.81 590.088 535.87 589.789 535.87ZM548.314 531.328H587.371C586.181 521.671 577.908 514.112 567.958 514.054C557.908 513.997 549.508 521.558 548.314 531.328Z" fill="#283035"/>
<path opacity="0.14" d="M283.886 378.334H398.938C399.734 378.334 400.523 378.491 401.258 378.796C401.993 379.1 402.662 379.547 403.225 380.11C403.788 380.673 404.234 381.341 404.539 382.076C404.843 382.812 405 383.6 405 384.396V473.71C405 474.506 404.843 475.295 404.539 476.03C404.234 476.765 403.788 477.434 403.225 477.997C402.662 478.56 401.993 479.006 401.258 479.311C400.523 479.615 399.734 479.772 398.938 479.772H283.886C282.279 479.772 280.737 479.134 279.6 477.997C278.463 476.86 277.824 475.318 277.824 473.71V384.396C277.824 382.789 278.463 381.247 279.6 380.11C280.737 378.973 282.279 378.334 283.886 378.334Z" fill="black"/>
<path d="M277.957 373.035H393.009C394.616 373.035 396.158 373.674 397.295 374.811C398.432 375.948 399.071 377.489 399.071 379.097V468.411C399.071 469.207 398.914 469.995 398.609 470.731C398.305 471.466 397.858 472.135 397.295 472.698C396.732 473.26 396.064 473.707 395.329 474.012C394.593 474.316 393.805 474.473 393.009 474.473H277.957C277.161 474.473 276.372 474.316 275.637 474.012C274.901 473.707 274.233 473.26 273.67 472.698C273.107 472.135 272.661 471.466 272.356 470.731C272.052 469.995 271.895 469.207 271.895 468.411V379.097C271.895 377.489 272.533 375.948 273.67 374.811C274.807 373.674 276.349 373.035 277.957 373.035Z" fill="#353F49"/>
<path d="M393.009 475.987H277.957C273.779 475.987 270.381 472.589 270.381 468.411V379.097C270.381 374.919 273.78 371.521 277.957 371.521H393.009C397.187 371.521 400.585 374.919 400.585 379.097V468.411C400.585 472.589 397.187 475.987 393.009 475.987ZM277.957 374.549C276.751 374.551 275.595 375.03 274.742 375.883C273.89 376.736 273.41 377.892 273.409 379.097V468.411C273.41 469.617 273.89 470.773 274.742 471.626C275.595 472.478 276.751 472.958 277.957 472.959H393.009C394.214 472.958 395.37 472.478 396.223 471.626C397.076 470.773 397.555 469.617 397.557 468.411V379.097C397.555 377.892 397.076 376.736 396.223 375.883C395.37 375.03 394.214 374.551 393.009 374.549H277.957Z" fill="#283035"/>
<path d="M277.956 373.035H393.009C394.616 373.035 396.158 373.674 397.295 374.811C398.432 375.948 399.071 377.489 399.071 379.097V388.175H271.895V379.097C271.895 377.49 272.534 375.948 273.67 374.811C274.807 373.674 276.349 373.036 277.956 373.035Z" fill="#EAEEEF"/>
<path d="M399.071 389.689H271.895C271.493 389.689 271.108 389.53 270.824 389.246C270.54 388.962 270.381 388.577 270.381 388.175V379.097C270.381 374.92 273.779 371.522 277.956 371.521H393.009C397.187 371.521 400.585 374.919 400.585 379.097V388.175C400.585 388.577 400.425 388.962 400.141 389.246C399.857 389.53 399.472 389.689 399.071 389.689ZM273.409 386.661H397.557V379.097C397.555 377.892 397.076 376.736 396.223 375.883C395.37 375.03 394.214 374.551 393.009 374.549H277.956C276.75 374.551 275.594 375.03 274.742 375.883C273.889 376.736 273.41 377.892 273.409 379.097V386.661Z" fill="#283035"/>
<path opacity="0.35" d="M282.745 382.971C284.051 382.971 285.11 381.912 285.11 380.605C285.11 379.299 284.051 378.24 282.745 378.24C281.438 378.24 280.379 379.299 280.379 380.605C280.379 381.912 281.438 382.971 282.745 382.971Z" fill="#283035"/>
<path opacity="0.35" d="M290.188 382.971C291.495 382.971 292.554 381.912 292.554 380.605C292.554 379.299 291.495 378.24 290.188 378.24C288.882 378.24 287.823 379.299 287.823 380.605C287.823 381.912 288.882 382.971 290.188 382.971Z" fill="#283035"/>
<path opacity="0.35" d="M297.254 382.971C298.561 382.971 299.62 381.912 299.62 380.605C299.62 379.299 298.561 378.24 297.254 378.24C295.948 378.24 294.889 379.299 294.889 380.605C294.889 381.912 295.948 382.971 297.254 382.971Z" fill="#283035"/>
<path d="M277.824 392.339H286.151V394.61H277.824V392.339ZM289.179 392.339H311.889V394.61H289.179V392.339Z" fill="#46BB86"/>
<path d="M277.824 398.395H311.889V400.666H277.824V398.395Z" fill="#389ABE"/>
<path d="M284.637 404.451H301.291V406.722H284.637V404.451Z" fill="#E5C689"/>
<path d="M304.319 404.451H322.487V406.722H304.319V404.451ZM293.721 410.507H328.543V412.778H293.721V410.507Z" fill="#F2F3F4"/>
<path d="M293.721 416.563H319.459V418.834H293.721V416.563Z" fill="#FFA49F"/>
<path d="M284.637 422.619H322.487V424.89H284.637V422.619Z" fill="#F2F3F4"/>
<path d="M277.824 427.918H298.263V430.189H277.824V427.918Z" fill="#389ABE"/>
<path opacity="0.3" d="M453.93 458.38C453.93 455.388 452.773 453.281 450.461 451.989C448.829 451.105 448.149 450.424 448.149 448.861V446.211C448.149 444.376 448.965 443.968 450.393 443.015C452.773 441.996 453.93 439.82 453.93 436.556V430.775C453.93 426.152 455.629 422.751 458.077 421.323C459.908 420.018 462.085 419.284 464.333 419.215H465.217C467.121 419.215 468.073 420.168 468.074 422.071V423.087C468.074 424.923 467.121 425.875 465.217 425.875C462.568 425.875 461.273 427.779 461.273 431.655V438.795C461.341 440.528 460.909 442.245 460.029 443.74C459.149 445.234 457.858 446.445 456.31 447.227L455.697 447.431V447.567C456.395 447.773 457.043 448.12 457.601 448.588C459.301 449.606 461.273 451.987 461.273 456.135V464.091C461.273 467.899 462.566 469.803 465.217 469.803C467.121 469.803 468.073 470.755 468.074 472.659V473.679C468.074 475.583 467.121 476.534 465.217 476.535H464.333C462.085 476.466 459.908 475.733 458.077 474.427C455.629 472.999 453.93 469.531 453.93 464.975V458.38Z" fill="white"/>
<path d="M134.561 501.655C127.415 501.655 120.269 499.394 114.328 494.872L113.526 495.652C113.419 495.758 113.293 495.841 113.154 495.898C113.015 495.955 112.866 495.983 112.716 495.982C112.566 495.981 112.417 495.95 112.279 495.891C112.141 495.832 112.016 495.746 111.911 495.638C111.807 495.531 111.724 495.403 111.669 495.264C111.614 495.124 111.587 494.975 111.59 494.825C111.593 494.675 111.625 494.527 111.686 494.389C111.746 494.252 111.833 494.128 111.942 494.024L113.456 492.552C113.655 492.358 113.919 492.244 114.196 492.231C114.474 492.219 114.747 492.308 114.963 492.484C126.318 501.687 142.802 501.687 154.156 492.484C154.372 492.308 154.646 492.218 154.924 492.231C155.202 492.244 155.466 492.359 155.665 492.554L157.557 494.403C158.006 494.841 158.015 495.56 157.576 496.009C157.471 496.116 157.347 496.201 157.21 496.26C157.073 496.318 156.926 496.349 156.776 496.351C156.627 496.353 156.479 496.325 156.341 496.269C156.203 496.213 156.076 496.131 155.97 496.026L154.789 494.874C148.85 499.394 141.705 501.655 134.561 501.655ZM123.438 491.309C123.137 491.309 122.848 491.189 122.635 490.976C122.422 490.763 122.302 490.475 122.302 490.173V487.205C122.304 486.045 122.765 484.933 123.586 484.112C124.406 483.292 125.518 482.831 126.679 482.83C127.839 482.831 128.951 483.292 129.772 484.113C130.592 484.933 131.053 486.045 131.055 487.205C131.055 487.506 130.935 487.795 130.722 488.008C130.509 488.221 130.221 488.341 129.919 488.341C129.618 488.341 129.329 488.221 129.116 488.008C128.903 487.795 128.784 487.506 128.784 487.205C128.783 486.647 128.561 486.112 128.166 485.718C127.772 485.323 127.237 485.101 126.679 485.101C126.121 485.101 125.586 485.323 125.191 485.718C124.796 486.112 124.574 486.647 124.573 487.205V490.174C124.573 490.475 124.454 490.764 124.241 490.977C124.028 491.189 123.739 491.309 123.438 491.309ZM146.063 491.309C145.762 491.309 145.473 491.189 145.26 490.976C145.047 490.763 144.928 490.475 144.928 490.173V487.205C144.927 486.647 144.705 486.112 144.31 485.718C143.915 485.323 143.38 485.101 142.822 485.101C142.264 485.101 141.729 485.323 141.335 485.718C140.94 486.112 140.718 486.647 140.717 487.205C140.717 487.506 140.598 487.795 140.385 488.008C140.172 488.221 139.883 488.341 139.582 488.341C139.281 488.341 138.992 488.221 138.779 488.008C138.566 487.795 138.446 487.506 138.446 487.205C138.447 486.045 138.909 484.933 139.729 484.112C140.55 483.292 141.662 482.831 142.822 482.83C143.983 482.831 145.095 483.292 145.915 484.113C146.736 484.933 147.197 486.045 147.199 487.205V490.174C147.198 490.475 147.079 490.764 146.866 490.977C146.653 491.189 146.364 491.309 146.063 491.309Z" fill="#283035"/>
<path d="M607.751 435.189H666.645C668.472 435.189 670.224 435.915 671.516 437.206C672.808 438.498 673.534 440.25 673.534 442.077V526.71C673.534 528.537 672.808 530.289 671.516 531.581C670.224 532.873 668.472 533.599 666.645 533.599H607.751C605.924 533.599 604.172 532.873 602.88 531.581C601.588 530.289 600.862 528.537 600.862 526.71V442.077C600.862 440.25 601.588 438.498 602.88 437.206C604.172 435.915 605.924 435.189 607.751 435.189Z" fill="#E5E5E5"/>
<path d="M666.645 435.189H665.772C665.898 435.71 665.963 436.243 665.964 436.778V521.411C665.964 523.238 665.238 524.99 663.946 526.282C662.654 527.574 660.902 528.3 659.075 528.3H601.058C601.416 529.808 602.271 531.151 603.486 532.112C604.702 533.074 606.206 533.597 607.755 533.599H666.65C668.477 533.599 670.229 532.873 671.521 531.581C672.813 530.289 673.539 528.537 673.539 526.71V442.077C673.539 440.25 672.813 438.498 671.521 437.206C670.229 435.915 668.477 435.189 666.65 435.189H666.645Z" fill="#CFD1D0"/>
<path d="M666.645 535.87H607.751C602.7 535.87 598.591 531.761 598.591 526.71V442.077C598.591 437.027 602.7 432.917 607.751 432.917H666.645C671.696 432.917 675.806 437.027 675.806 442.077V526.71C675.805 531.761 671.695 535.87 666.645 535.87ZM607.751 437.46C606.526 437.461 605.353 437.948 604.487 438.814C603.621 439.68 603.134 440.854 603.133 442.078V526.711C603.133 529.257 605.204 531.329 607.751 531.329H666.645C667.87 531.327 669.044 530.84 669.909 529.975C670.775 529.109 671.262 527.935 671.264 526.711V442.078C671.263 440.854 670.776 439.68 669.91 438.814C669.044 437.948 667.87 437.461 666.645 437.46H607.751Z" fill="#283035"/>
<path d="M649.31 429.478H643.254V427.207C643.254 425.601 642.616 424.06 641.48 422.925C640.345 421.789 638.804 421.151 637.198 421.151C635.592 421.151 634.052 421.789 632.916 422.925C631.78 424.06 631.142 425.601 631.142 427.207V429.478H625.086C623.48 429.478 621.94 430.116 620.804 431.252C619.668 432.387 619.03 433.928 619.03 435.534C619.03 437.14 619.668 438.68 620.804 439.816C621.94 440.952 623.48 441.59 625.086 441.59H649.31C650.916 441.59 652.457 440.952 653.592 439.816C654.728 438.68 655.366 437.14 655.366 435.534C655.366 433.928 654.728 432.387 653.592 431.252C652.457 430.116 650.916 429.478 649.31 429.478Z" fill="#F7B66F"/>
<path d="M652.124 430.174C652.369 431.072 652.404 432.014 652.226 432.927C652.047 433.84 651.66 434.699 651.095 435.438C650.529 436.177 649.801 436.775 648.966 437.185C648.131 437.596 647.212 437.808 646.282 437.805H622.058C621.077 437.805 620.111 437.567 619.244 437.109C619.59 438.394 620.35 439.529 621.406 440.339C622.462 441.149 623.755 441.589 625.086 441.59H649.31C650.663 441.589 651.977 441.134 653.041 440.299C654.106 439.464 654.86 438.297 655.184 436.983C655.508 435.67 655.382 434.285 654.828 433.051C654.273 431.817 653.321 430.804 652.124 430.174ZM640.226 423.422V425.693H643.056C642.844 424.875 642.465 424.111 641.94 423.448C641.416 422.786 640.759 422.241 640.012 421.847C640.153 422.361 640.224 422.89 640.226 423.422Z" fill="#EDA762"/>
<path d="M649.31 443.861H625.086C620.495 443.861 616.759 440.125 616.759 435.534C616.759 430.943 620.495 427.207 625.086 427.207H628.871C628.871 422.616 632.607 418.88 637.198 418.88C641.789 418.88 645.525 422.616 645.525 427.207H649.31C653.901 427.207 657.637 430.943 657.637 435.534C657.637 440.125 653.902 443.861 649.31 443.861ZM625.086 431.749C622.999 431.749 621.301 433.447 621.301 435.534C621.301 437.621 622.999 439.319 625.086 439.319H649.31C651.397 439.319 653.095 437.621 653.095 435.534C653.095 433.447 651.397 431.749 649.31 431.749H643.254C642.652 431.749 642.074 431.51 641.648 431.084C641.222 430.658 640.983 430.08 640.983 429.478V427.207C640.983 425.12 639.285 423.422 637.198 423.422C635.111 423.422 633.413 425.12 633.413 427.207V429.478C633.413 430.08 633.174 430.658 632.748 431.084C632.322 431.51 631.744 431.749 631.142 431.749H625.086Z" fill="#283035"/>
<path d="M637.198 463.543C640.682 463.543 643.506 460.719 643.506 457.235C643.506 453.751 640.682 450.927 637.198 450.927C633.714 450.927 630.89 453.751 630.89 457.235C630.89 460.719 633.714 463.543 637.198 463.543Z" fill="#8EAFBF"/>
<path d="M637.198 465.814C632.468 465.814 628.619 461.965 628.619 457.235C628.619 452.504 632.468 448.656 637.198 448.656C641.929 448.656 645.777 452.504 645.777 457.235C645.777 461.965 641.929 465.814 637.198 465.814ZM637.198 453.198C634.972 453.198 633.161 455.009 633.161 457.235C633.161 459.46 634.972 461.272 637.198 461.272C639.424 461.272 641.235 459.46 641.235 457.235C641.235 455.009 639.424 453.198 637.198 453.198ZM628.283 478.936H613.143C612.541 478.936 611.963 478.696 611.537 478.271C611.111 477.845 610.872 477.267 610.872 476.665C610.872 476.062 611.111 475.485 611.537 475.059C611.963 474.633 612.541 474.394 613.143 474.394H628.283C628.885 474.394 629.463 474.633 629.889 475.059C630.315 475.485 630.554 476.062 630.554 476.665C630.554 477.267 630.315 477.845 629.889 478.271C629.463 478.696 628.885 478.936 628.283 478.936ZM628.283 499.5H613.143C612.541 499.5 611.963 499.261 611.537 498.835C611.111 498.409 610.872 497.832 610.872 497.229C610.872 496.627 611.111 496.049 611.537 495.624C611.963 495.198 612.541 494.958 613.143 494.958H628.283C628.885 494.958 629.463 495.198 629.889 495.624C630.315 496.049 630.554 496.627 630.554 497.229C630.554 497.832 630.315 498.409 629.889 498.835C629.463 499.261 628.885 499.5 628.283 499.5ZM628.283 520.066H613.143C612.541 520.066 611.963 519.827 611.537 519.401C611.111 518.975 610.872 518.397 610.872 517.795C610.872 517.192 611.111 516.615 611.537 516.189C611.963 515.763 612.541 515.524 613.143 515.524H628.283C628.885 515.524 629.463 515.763 629.889 516.189C630.315 516.615 630.554 517.192 630.554 517.795C630.554 518.397 630.315 518.975 629.889 519.401C629.463 519.827 628.885 520.066 628.283 520.066Z" fill="#283035"/>
<path d="M642.234 482.619C641.999 482.619 641.767 482.564 641.557 482.46C641.347 482.355 641.164 482.202 641.022 482.015L637.075 476.765C636.846 476.443 636.752 476.045 636.813 475.655C636.873 475.264 637.083 474.913 637.399 474.676C637.714 474.439 638.11 474.334 638.502 474.384C638.893 474.434 639.25 474.635 639.495 474.944L642.533 478.984L653.135 471.014C653.457 470.785 653.855 470.691 654.245 470.751C654.635 470.811 654.987 471.022 655.224 471.337C655.461 471.653 655.566 472.049 655.516 472.44C655.466 472.832 655.265 473.188 654.956 473.434L643.143 482.314C642.882 482.512 642.562 482.619 642.234 482.619ZM642.233 503.184C641.998 503.184 641.767 503.129 641.557 503.024C641.347 502.919 641.164 502.767 641.023 502.58L637.076 497.329C636.847 497.007 636.753 496.609 636.813 496.218C636.874 495.828 637.084 495.477 637.4 495.24C637.715 495.003 638.111 494.898 638.502 494.948C638.894 494.998 639.251 495.199 639.496 495.508L642.533 499.549L653.136 491.578C653.457 491.35 653.856 491.255 654.246 491.316C654.636 491.376 654.987 491.586 655.225 491.902C655.462 492.217 655.567 492.613 655.517 493.005C655.467 493.396 655.266 493.753 654.956 493.999L643.144 502.879C642.881 503.076 642.562 503.184 642.233 503.184Z" fill="#8BAFC1"/>
<path d="M673.551 478.394L681.049 477.351L687.725 525.338L680.227 526.382L673.551 478.394Z" fill="#3BBC88"/>
<path d="M680.211 527.856C679.845 527.857 679.492 527.725 679.217 527.485C678.941 527.245 678.762 526.913 678.712 526.551L672.035 478.565C672.008 478.368 672.019 478.168 672.07 477.975C672.12 477.783 672.207 477.603 672.327 477.444C672.447 477.286 672.597 477.152 672.768 477.052C672.94 476.951 673.129 476.885 673.326 476.858L680.823 475.815C681.643 475.693 682.416 476.276 682.531 477.105L689.208 525.091C689.235 525.288 689.224 525.488 689.173 525.681C689.123 525.873 689.036 526.054 688.916 526.212C688.796 526.371 688.646 526.504 688.475 526.605C688.303 526.706 688.114 526.771 687.917 526.799L680.42 527.843C680.35 527.852 680.281 527.856 680.211 527.856ZM675.242 479.647L681.501 524.634L686 524.008L679.74 479.021L675.242 479.647Z" fill="#283035"/>
<path d="M687.71 525.297L680.211 526.341L685.004 533.316L687.71 525.297Z" fill="#E5E5E5"/>
<path d="M685.004 534.83C684.758 534.83 684.517 534.771 684.299 534.656C684.082 534.542 683.896 534.376 683.756 534.174L678.965 527.198C678.819 526.986 678.729 526.739 678.705 526.482C678.681 526.225 678.723 525.966 678.828 525.73C678.932 525.494 679.094 525.289 679.3 525.133C679.506 524.978 679.748 524.877 680.004 524.842L687.501 523.799C687.757 523.763 688.017 523.794 688.257 523.887C688.498 523.981 688.71 524.134 688.875 524.333C689.039 524.532 689.15 524.769 689.198 525.023C689.245 525.276 689.226 525.537 689.144 525.782L686.439 533.801C686.337 534.101 686.144 534.362 685.887 534.547C685.63 534.731 685.321 534.831 685.004 534.83ZM682.847 527.503L684.537 529.963L685.491 527.135L682.847 527.503Z" fill="#283035"/>
<path d="M673.768 470.279L678.264 469.651L679.309 477.145L674.812 477.773L673.768 470.279Z" fill="#E5E5E5"/>
<path d="M674.81 479.324C674.445 479.324 674.092 479.192 673.817 478.952C673.542 478.713 673.362 478.382 673.311 478.02L672.266 470.527C672.211 470.129 672.315 469.726 672.557 469.406C672.799 469.085 673.158 468.874 673.556 468.818L678.052 468.192C678.449 468.137 678.852 468.242 679.172 468.484C679.492 468.725 679.704 469.084 679.76 469.482L680.805 476.975C680.86 477.372 680.755 477.775 680.513 478.095C680.272 478.415 679.913 478.627 679.516 478.683L675.019 479.31C674.95 479.32 674.88 479.325 674.81 479.324ZM675.473 471.607L676.1 476.103L677.598 475.894L676.971 471.398L675.473 471.607ZM687.812 497.762C687.551 497.762 687.295 497.695 687.068 497.567C686.841 497.44 686.651 497.256 686.516 497.033C685.577 495.488 684.912 493.792 684.551 492.02C684.067 489.646 684.428 487.801 684.717 486.318C684.98 484.974 685.102 484.241 684.779 483.565C684.728 483.455 684.679 483.345 684.631 483.234C684.337 482.564 684.106 482.035 681.925 481.72C681.729 481.691 681.539 481.625 681.368 481.523C681.198 481.421 681.048 481.287 680.929 481.128C680.81 480.968 680.724 480.787 680.675 480.595C680.626 480.402 680.615 480.201 680.644 480.005C680.672 479.808 680.739 479.619 680.841 479.448C680.943 479.277 681.077 479.128 681.236 479.009C681.395 478.89 681.577 478.803 681.769 478.754C681.962 478.705 682.162 478.695 682.359 478.723C685.908 479.235 686.825 480.694 687.405 482.02C687.442 482.101 687.477 482.182 687.514 482.259C688.282 483.87 687.981 485.408 687.69 486.897C687.427 488.242 687.156 489.633 687.518 491.415C687.81 492.845 688.347 494.214 689.106 495.461C689.245 495.691 689.321 495.953 689.325 496.222C689.33 496.49 689.263 496.755 689.131 496.989C688.999 497.223 688.808 497.418 688.576 497.554C688.344 497.69 688.08 497.761 687.812 497.762ZM716.501 535.87H697.008C696.406 535.87 695.828 535.63 695.402 535.205C694.976 534.779 694.737 534.201 694.737 533.599C694.737 532.996 694.976 532.419 695.402 531.993C695.828 531.567 696.406 531.328 697.008 531.328H716.501C717.103 531.328 717.681 531.567 718.107 531.993C718.532 532.419 718.772 532.996 718.772 533.599C718.772 534.201 718.532 534.779 718.107 535.205C717.681 535.63 717.103 535.87 716.501 535.87ZM688.492 535.87H177.39C176.788 535.87 176.21 535.63 175.784 535.205C175.358 534.779 175.119 534.201 175.119 533.599C175.119 532.996 175.358 532.419 175.784 531.993C176.21 531.567 176.788 531.328 177.39 531.328H688.492C689.094 531.328 689.672 531.567 690.097 531.993C690.523 532.419 690.763 532.996 690.763 533.599C690.763 534.201 690.523 534.779 690.097 535.205C689.672 535.63 689.094 535.87 688.492 535.87ZM168.52 535.87H86.8658C86.2635 535.87 85.6859 535.63 85.26 535.205C84.8341 534.779 84.5948 534.201 84.5948 533.599C84.5948 532.996 84.8341 532.419 85.26 531.993C85.6859 531.567 86.2635 531.328 86.8658 531.328H168.52C169.123 531.328 169.7 531.567 170.126 531.993C170.552 532.419 170.791 532.996 170.791 533.599C170.791 534.201 170.552 534.779 170.126 535.205C169.7 535.63 169.123 535.87 168.52 535.87ZM78.3496 535.87H60.8121C60.2098 535.87 59.6322 535.63 59.2063 535.205C58.7804 534.779 58.5411 534.201 58.5411 533.599C58.5411 532.996 58.7804 532.419 59.2063 531.993C59.6322 531.567 60.2098 531.328 60.8121 531.328H78.3496C78.9519 531.328 79.5295 531.567 79.9554 531.993C80.3813 532.419 80.6206 532.996 80.6206 533.599C80.6206 534.201 80.3813 534.779 79.9554 535.205C79.5295 535.63 78.9519 535.87 78.3496 535.87Z" fill="#283035"/>
<path d="M400.232 157.02C401.84 147.116 395.114 137.784 385.209 136.176C375.305 134.569 365.973 141.295 364.366 151.199C362.758 161.103 369.484 170.435 379.388 172.043C389.292 173.65 398.625 166.925 400.232 157.02Z" fill="white"/>
<path d="M330.136 158.213C329.212 158.21 328.299 158.011 327.458 157.629C326.616 157.247 325.865 156.691 325.255 155.998C324.644 155.305 324.187 154.49 323.914 153.607C323.642 152.724 323.559 151.793 323.673 150.876C327.204 120.893 352.101 97.653 382.29 97.653C412.479 97.653 437.376 120.893 440.907 150.876C441.021 151.793 440.938 152.724 440.666 153.607C440.393 154.49 439.936 155.305 439.325 155.999C438.714 156.692 437.963 157.248 437.121 157.63C436.28 158.012 435.366 158.21 434.442 158.213H330.136Z" fill="#F7B66F"/>
<path d="M391.374 98.3676C391.179 98.3366 390.981 98.3146 390.785 98.2859C390.095 98.1834 389.403 98.0933 388.71 98.0156C388.393 97.98 388.076 97.9513 387.758 97.921C387.181 97.8647 386.604 97.8191 386.025 97.784C385.689 97.7643 385.355 97.7393 385.018 97.7234C384.114 97.681 383.202 97.653 382.293 97.653C381.385 97.653 380.476 97.6803 379.577 97.7234C379.162 97.7431 378.749 97.7757 378.336 97.8037C377.08 97.8874 375.827 98.0144 374.58 98.1844C347.31 101.835 325.885 124.555 323.474 152.877C323.414 153.554 323.495 154.236 323.713 154.88C323.931 155.523 324.28 156.115 324.738 156.617C325.197 157.118 325.754 157.519 326.376 157.794C326.997 158.069 327.669 158.212 328.349 158.213H436.235C436.909 158.215 437.576 158.077 438.194 157.809C438.812 157.54 439.368 157.147 439.826 156.653C440.285 156.159 440.636 155.576 440.858 154.94C441.08 154.304 441.168 153.628 441.117 152.956C438.779 125.072 418.015 102.587 391.374 98.3676ZM343.701 141.505C346.277 132.148 351.082 123.555 357.706 116.462C364.329 109.369 372.574 103.987 381.733 100.779C390.9 103.981 399.154 109.36 405.785 116.453C412.416 123.547 417.228 132.143 419.806 141.505C420.98 145.849 418.411 150.322 414.068 151.496C413.366 151.686 412.641 151.781 411.915 151.779H351.593C347.094 151.794 343.434 148.16 343.419 143.66C343.416 142.933 343.511 142.208 343.701 141.505Z" fill="#EFAA65"/>
<path d="M330.187 160.484H330.181C329.018 160.484 327.867 160.254 326.794 159.806C325.721 159.358 324.748 158.701 323.931 157.875C323.109 157.053 322.458 156.076 322.016 155C321.574 153.925 321.35 152.773 321.356 151.61C321.357 151.256 321.38 150.898 321.424 150.546C325.154 119.103 351.322 95.382 382.29 95.382C413.26 95.382 439.427 119.103 443.156 150.558C443.301 151.71 443.217 152.878 442.907 153.997C442.598 155.115 442.069 156.161 441.353 157.074C440.641 157.993 439.754 158.761 438.743 159.335C437.732 159.909 436.617 160.277 435.463 160.417C435.112 160.461 434.753 160.482 434.398 160.484H330.187ZM330.187 155.942H434.391C435.043 155.941 435.687 155.791 436.273 155.504C436.859 155.216 437.371 154.798 437.771 154.283C438.12 153.838 438.377 153.328 438.527 152.782C438.678 152.237 438.718 151.667 438.647 151.106C435.187 121.922 410.959 99.924 382.29 99.924C353.622 99.924 329.393 121.922 325.932 151.093C325.847 151.743 325.913 152.404 326.125 153.025C326.336 153.645 326.687 154.209 327.15 154.673C327.548 155.074 328.021 155.393 328.542 155.611C329.064 155.829 329.623 155.942 330.188 155.943H330.187V155.942Z" fill="#283035"/>
<path d="M380.019 0H384.561V97.653H380.019V0Z" fill="#283035"/>
<defs>
<linearGradient id="paint0_linear_218:31062" x1="382.29" y1="147.407" x2="382.29" y2="544.438" gradientUnits="userSpaceOnUse">
<stop stop-color="white"/>
<stop offset="0.093" stop-color="white" stop-opacity="0.864"/>
<stop offset="0.284" stop-color="white" stop-opacity="0.605"/>
<stop offset="0.466" stop-color="white" stop-opacity="0.389"/>
<stop offset="0.633" stop-color="white" stop-opacity="0.221"/>
<stop offset="0.784" stop-color="white" stop-opacity="0.1"/>
<stop offset="0.911" stop-color="white" stop-opacity="0.026"/>
<stop offset="1" stop-color="white" stop-opacity="0"/>
</linearGradient>
</defs>
</svg>
