<svg width="18" height="19" viewBox="0 0 18 19" fill="none" xmlns="http://www.w3.org/2000/svg">
<path d="M16.5 7.36518V13.4717C16.5 14.0943 16.2618 14.6933 15.8342 15.1459C15.4067 15.5984 14.8221 15.8702 14.2005 15.9054L14.0625 15.9092H3.9375C3.3149 15.9092 2.71588 15.671 2.26333 15.2434C1.81078 14.8158 1.539 14.2313 1.50375 13.6097L1.5 13.4717V7.36518L8.739 11.1572C8.81953 11.1994 8.90909 11.2214 9 11.2214C9.09091 11.2214 9.18047 11.1994 9.261 11.1572L16.5 7.36518ZM3.9375 3.90918H14.0625C14.6667 3.90911 15.2494 4.13343 15.6975 4.53863C16.1457 4.94383 16.4274 5.50104 16.488 6.10218L9 10.0247L1.512 6.10218C1.57014 5.52491 1.83229 4.98732 2.25131 4.58603C2.67034 4.18474 3.21876 3.94607 3.798 3.91293L3.9375 3.90918H14.0625H3.9375Z" fill="#FF715B"/>
</svg>
