<svg width="18" height="19" viewBox="0 0 18 19" fill="none" xmlns="http://www.w3.org/2000/svg">
<path d="M11.4357 12.9917L12.6957 11.7317C12.8654 11.5641 13.0801 11.4494 13.3137 11.4014C13.5474 11.3535 13.7899 11.3745 14.0119 11.4617L15.5475 12.0748C15.7719 12.1659 15.9642 12.3213 16.1004 12.5215C16.2365 12.7217 16.3103 12.9577 16.3125 13.1998V16.0123C16.3112 16.177 16.2766 16.3397 16.2108 16.4907C16.1449 16.6416 16.0492 16.7777 15.9294 16.8907C15.8096 17.0037 15.6681 17.0913 15.5136 17.1482C15.359 17.205 15.1945 17.2301 15.03 17.2217C4.26942 16.5523 2.09817 7.43983 1.68754 3.95233C1.66848 3.78107 1.6859 3.60771 1.73865 3.44366C1.79139 3.27962 1.87828 3.1286 1.99358 3.00054C2.10889 2.87248 2.25 2.77029 2.40763 2.70069C2.56527 2.63108 2.73585 2.59565 2.90817 2.5967H5.62504C5.86749 2.59742 6.10417 2.67065 6.30465 2.80698C6.50514 2.94331 6.66025 3.1365 6.75004 3.3617L7.36317 4.89733C7.45331 5.11843 7.47631 5.36119 7.42929 5.59528C7.38227 5.82938 7.26732 6.04443 7.09879 6.21358L5.83879 7.47358C5.83879 7.47358 6.56442 12.3842 11.4357 12.9917Z" fill="#FF715B"/>
</svg>
